# xmcd
#
# Track frame offsets:
# 150
# 11314
# 23026
# 34964
# 47501
# 59096
# 71734
# 83777
# 94609
# 105026
# 114825
# 126758
# 137567
# 147268
#
# Disc length: 2107 seconds
#
# Revision: 0
# Processed by: cddbd v1.4PL0 Copyright (c) Steve Scherf et al.
# Submitted via: Axialis_AX_CDPlayer 2.6
#
DISCID=ae08390e
DTITLE=Liechtensteiner Polka - Liechtensteiner Polka
DYEAR=1900
DGENRE=
TTITLE0=Fröhliche Harmonikas
TTITLE1=Tirol grüsst Japan
TTITLE2=Stadelzeit
TTITLE3=Trixipolka
TTITLE4=Auf zum Fest
TTITLE5=Strahlende Trompeten
TTITLE6=Ein Feuerwerk auf der Harmonika
TTITLE7=Auf der Fuchsjagd
TTITLE8=Lumpenpolka
TTITLE9=Florida-Express
TTITLE10=In die Welt hinaus
TTITLE11=Oberland Polka
TTITLE12=Hey Man Polka
TTITLE13=Liechtensteiner Polka
EXTD=
EXTT0=
EXTT1=
EXTT2=
EXTT3=
EXTT4=
EXTT5=
EXTT6=
EXTT7=
EXTT8=
EXTT9=
EXTT10=
EXTT11=
EXTT12=
EXTT13=
PLAYORDER=
